# xmcd
#
# Track frame offsets:
#	150
#	22392
#	41755
#	61120
#	77310
#	97285
#	121402
#	141255
#	158910
#	182107
#	198625
#	213290
#	232090
#	254195
#	273282
#
# Disc length: 3943 seconds
#
# Revision: 1
# Processed by: cddbd v1.5.2PL0 Copyright (c) Steve Scherf et al.
# Submitted via: EasyCDDAExtractor 10.0.2.1
#
DISCID=e50f650f
DTITLE=Roberto Soffici - Roberto Soffici- Il meglio
DYEAR=1900
DGENRE=Samba
TTITLE0=All'improvviso l'incoscienza
TTITLE1=Io ti voglio tanto bene
TTITLE2=Non credere
TTITLE3=Perdona bambina
TTITLE4=Come Biancaneve (dedicato a Gaia)
TTITLE5=La pubblica ottusità
TTITLE6=Nel dolce ricordo del suo sorriso
TTITLE7=Un pugno di sabbia
TTITLE8=Dimenticare
TTITLE9=Invece adesso
TTITLE10=Un giorno insieme
TTITLE11=Tanto donna
TTITLE12=Strano momento
TTITLE13=Casa mia
TTITLE14=Una stella...
EXTD=ID3G: 114
EXTT0=
EXTT1=
EXTT2=
EXTT3=
EXTT4=
EXTT5=
EXTT6=
EXTT7=
EXTT8=
EXTT9=
EXTT10=
EXTT11=
EXTT12=
EXTT13=
EXTT14=
PLAYORDER=
